<svg xmlns="http://www.w3.org/2000/svg" width="233.578" height="233.594" viewBox="0 0 233.578 233.594"><g transform="translate(-202.611 69.786)"><path d="M273.47,1.081" transform="translate(45.928 45.934)" fill="#fef1ef"/><path d="M319.4-69.786a116.8,116.8,0,0,0-2.586,233.562c.857.016,1.731.033,2.586.033s1.714-.016,2.571-.033A116.8,116.8,0,0,0,319.4-69.786Zm2.571,229.606c-.857.016-1.714.033-2.571.033s-1.729-.016-2.586-.033a112.843,112.843,0,1,1,5.157,0Z" transform="translate(0)" fill="#fef1ef"/><g transform="translate(218.302 -54.079)"><path d="M256.986,31.478l-.138-.138a.937.937,0,0,1,.076.069A.657.657,0,0,0,256.986,31.478Z" transform="translate(-183.147 119.625)" fill="#fef1ef"/><path d="M251.747,29.7H244.17c1.67-.035,2.67.02,4.778-.028h.129C249.536,29.7,250.337,29.7,251.747,29.7Z" transform="translate(-191.364 118.546)" fill="#fef1ef"/><path d="M253.121,29.695h-3.552C250.828,29.688,252.018,29.682,253.121,29.695Z" transform="translate(-187.865 118.554)" fill="#fef1ef"/><path d="M250.127,12.076v3.148C250.127,13.746,250.114,12.753,250.127,12.076Z" transform="translate(-187.507 107.139)" fill="#fef1ef"/><path d="M257.749,32.238a7.137,7.137,0,0,1-.643-.636Z" transform="translate(-182.98 119.795)" fill="#fef1ef"/><path d="M299.221,16.142V12.071C299.122,12.829,299.2,14.016,299.221,16.142ZM311.383,8.56h-.148a53.58,53.58,0,0,0-6.228.709c-.923.181-1.881.379-2.8.626.824-.181,1.666-.363,2.49-.511a58.4,58.4,0,0,1,7.2-.841C311.712,8.544,311.549,8.544,311.383,8.56Z" transform="translate(-155.713 104.85)" fill="#fef1ef"/><path d="M379.487,54.687v-.066c-.068-1.17-.15-2.34-.282-3.511a2.024,2.024,0,0,0-1.778-1.764,62.894,62.894,0,0,0-24.411,2.571c-2.291.709-4.516,1.516-6.626,2.406a34.561,34.561,0,0,1,1.831,3.544c.2-.1.379-.165.575-.247,1.286-.445,2.044-.577,2.505-.231a.887.887,0,0,1,.346.626c1.335-.659,2.7-1.3,4.106-1.9a1.621,1.621,0,0,1,.361-.61,2.483,2.483,0,0,1,1.106-.61q.668-.223,1.333-.4c.033,0,.049-.016.066-.016.923-.247,1.881-.445,2.8-.626a53.586,53.586,0,0,1,6.228-.709h.148c.166-.016.33-.016.513-.016h.049c.4-.016.824-.033,1.269-.049,1.416-.033,2.124-.082,2.273.264.133.3-.18.659-.939,1.5l-.1.082L363.9,61.906v.016c.031.775.015,1.829,0,3.313v2.209l5.124-5.126.033-.033,3.527-3.527.412-.4c.148-.132.282-.28.429-.429,1.022-.989,1.5-1.5,1.862-1.351.346.165.3.874.313,2.752a54.9,54.9,0,0,1-1.681,12.328c-.163.709-.362,1.4-.559,2.093a66.059,66.059,0,0,1-2.622,7.334v.016a7.065,7.065,0,0,1-1.005,1.632,3.182,3.182,0,0,1-1.366.857V84.5l8.437-8.439c.132-.412.249-.808.363-1.187a58.706,58.706,0,0,0,1.78-8.241A60.1,60.1,0,0,0,379.487,54.687Zm-16.828,40.1c-.166.2-.313.379-.462.544a37.555,37.555,0,0,1-4.7,4.73,32.4,32.4,0,0,1-10.81,6.148,1.638,1.638,0,0,0-.265.082,40.815,40.815,0,0,1-8.981,1.829l-3.957,3.956c.593.049,1.187.066,1.78.066a36.637,36.637,0,0,0,6.032-.544,43.568,43.568,0,0,0,6.345-1.549A37.255,37.255,0,0,0,363.35,99.962a47.337,47.337,0,0,0,4.269-5.159h-4.4C363.039,94.8,362.839,94.787,362.66,94.787Zm-82.624,11.5c-.082-.033-.148-.049-.229-.082a31.921,31.921,0,0,1-10.83-6.148,37.843,37.843,0,0,1-4.4-4.351c-.232-.264-.494-.577-.776-.923-.048-.066-.114-.132-.165-.2-.247-.313-.494-.626-.724-.956-.494-.626-.991-1.319-1.516-2.11-1.122-1.681-1.3-2.324-1.057-2.785.1-.2.3-.412,1.434-.56A26.559,26.559,0,0,1,264.528,88h.412c1.416-.033,2.355,0,3.921-.033l-.808-.808c-.262-.28-.674-.643-1.121-1.137a15.185,15.185,0,0,1-1.581-1.945h-.857c-1.089-.016-1.37-.016-1.665-.016-2.985-.033-4.979-.082-6.1-1.319a6.913,6.913,0,0,1-1.007-1.648.126.126,0,0,1-.033-.082,71.3,71.3,0,0,1-2.588-7.252c-.2-.692-.4-1.384-.559-2.093a56.208,56.208,0,0,1-1.683-12.229v-.016c.018-1.945-.033-2.67.33-2.835.346-.148.824.363,1.848,1.351.3.3.575.577.841.824l.379.379,3.13,3.132,5.159,5.159v-4.8c0-.264,0-.494.016-.709v-.016h-.016l-6.955-6.972c-.064-.066-.13-.148-.2-.214-.691-.758-.956-1.088-.841-1.368.117-.231.463-.28,1.121-.28h.527c.2,0,.4.016.626.016.232.016.447.016.661.033a58.214,58.214,0,0,1,7.959.89c.776.132,1.534.3,2.291.461h.016c.5.132,1.005.264,1.483.429a2.314,2.314,0,0,1,1.106.61,1.367,1.367,0,0,1,.346.56c1.432.593,2.817,1.22,4.137,1.862a.822.822,0,0,1,.328-.544c.447-.33,1.137-.231,2.324.165a34.309,34.309,0,0,1,1.881-3.544c-1.848-.742-3.825-1.45-5.9-2.093a62.922,62.922,0,0,0-24.409-2.571,1.884,1.884,0,0,0-.791.264,1.921,1.921,0,0,0-1,1.5c-.133,1.2-.232,2.39-.28,3.577a60.1,60.1,0,0,0,.542,11.949,58.77,58.77,0,0,0,1.8,8.241c.114.379.229.791.379,1.22A66.062,66.062,0,0,0,258.84,94.8a47.531,47.531,0,0,0,4.269,5.159h.016v.016a37.246,37.246,0,0,0,15.707,10.07A41.87,41.87,0,0,0,285.2,111.6a34.656,34.656,0,0,0,6,.544c.595,0,1.187-.016,1.782-.066L289,108.1A40.243,40.243,0,0,1,280.035,106.291Zm75.718-50.17c-1.4.593-2.771,1.236-4.106,1.9a5.172,5.172,0,0,1,.066.659c.016.692,0,1.731,0,3.428v1.764c1.335-.709,2.639-1.368,3.924-1.961v-1.17c-.016-2.126-.1-3.313,0-4.071A1.622,1.622,0,0,1,355.754,56.121Zm-72.239-.313c-1.319-.626-2.7-1.22-4.153-1.8a34.309,34.309,0,0,0-1.881,3.544l.148.049c.017,0,.035,0,.035.016.939.379,1.91.791,2.934,1.269.641.28,1.286.593,1.96.939a32.022,32.022,0,0,1,1.928-3.544C284.172,56.121,283.844,55.973,283.515,55.808Zm-12.692.841V61.89c1.287.593,2.588,1.236,3.923,1.945V58.956a6.585,6.585,0,0,1,.084-1.022c-1.32-.643-2.7-1.269-4.137-1.862A1.862,1.862,0,0,1,270.822,56.648Zm42.407-116.9a101.1,101.1,0,0,0-2.586,202.164c.857.016,1.714.033,2.586.033s1.714-.016,2.571-.033A101.1,101.1,0,0,0,313.23-60.256Zm-1.961,170.849-4.928-4.912a16.138,16.138,0,0,0,2.39-4.335,19.49,19.49,0,0,0,.972-3.626c.513.066,1.04.1,1.566.115Zm-7.629-7.944a1.372,1.372,0,0,1-.117.2L278.933,78.256c-.216-.214-.513-.494-.857-.857a11.579,11.579,0,0,1-1.881-2.637,15.07,15.07,0,0,1-1.45-6.312V58.956a6.585,6.585,0,0,1,.084-1.022.822.822,0,0,1,.328-.544c.447-.33,1.137-.231,2.324.165l.148.049c.017,0,.035,0,.035.016.939.379,1.91.791,2.934,1.269.641.28,1.286.593,1.96.939,8.488,4.219,18.41,11.438,21.922,23.041a39.533,39.533,0,0,1,1.383,6.411,27.872,27.872,0,0,1,.282,3.939,17.658,17.658,0,0,1-1.665,7.977A8.612,8.612,0,0,1,303.639,102.649ZM289,108.1a40.243,40.243,0,0,1-8.968-1.813c-.082-.033-.148-.049-.229-.082a31.921,31.921,0,0,1-10.83-6.148,37.843,37.843,0,0,1-4.4-4.351c-.232-.264-.494-.577-.776-.923-.048-.066-.114-.132-.165-.2-.247-.313-.494-.626-.724-.956-.494-.626-.991-1.319-1.516-2.11-1.122-1.681-1.3-2.324-1.057-2.785.1-.2.3-.412,1.434-.56A26.559,26.559,0,0,1,264.528,88h.412c1.416-.033,2.355,0,3.921-.033.265.016.544,0,.857,0h.133c.445.016,1.253.033,2.67.033h1.317c1.253-.016,2.439-.016,3.544,0,3.2.033,5.62.231,6.79,1.2.513.429.958.824,1.253,1.121a.737.737,0,0,1,.117.1l.165.165a1.058,1.058,0,0,1,.13.132.216.216,0,0,1,.068.066c.033.016.049.049.066.066s.049.033.064.066a2.476,2.476,0,0,1,.214.231l.643.626,13.846,13.845C297.374,107.989,293.008,108.434,289,108.1ZM270.822,56.648V68.911c-.033.28-.114.429-.247.494-.311.132-.74-.247-1.531-1.038-.1-.1-.216-.2-.33-.313-.15-.148-.282-.28-.429-.429-.134-.132-.249-.247-.381-.363l-5.34-5.34v-.016h-.016l-6.955-6.972c-.064-.066-.13-.148-.2-.214-.691-.758-.956-1.088-.841-1.368.117-.231.463-.28,1.121-.28h.527c.2,0,.4.016.626.016.232.016.447.016.661.033a58.214,58.214,0,0,1,7.959.89c.776.132,1.534.3,2.291.461h.016c.5.132,1.005.264,1.483.429a2.314,2.314,0,0,1,1.106.61,1.367,1.367,0,0,1,.346.56A1.862,1.862,0,0,1,270.822,56.648Zm-19.959,2.769c.018-1.945-.033-2.67.33-2.835.346-.148.824.363,1.848,1.351.3.3.575.577.841.824l.379.379,3.13,3.132,5.159,5.159L278.3,83.184c.148.214.2.363.148.494-.132.346-.841.346-2.258.379-.33,0-.626,0-.921.016H264.495c-1.089-.016-1.37-.016-1.665-.016-2.985-.033-4.979-.082-6.1-1.319a6.913,6.913,0,0,1-1.007-1.648.126.126,0,0,1-.033-.082,71.3,71.3,0,0,1-2.588-7.252c-.2-.692-.4-1.384-.559-2.093a56.208,56.208,0,0,1-1.683-12.229Zm62.02-16.482a25.253,25.253,0,0,1,23.735,16.416,53.662,53.662,0,0,0-6.3,4.6,38.215,38.215,0,0,0-12.114,17.767A40.223,40.223,0,0,0,316.4,93.436a26.3,26.3,0,0,1-6.331.082,40.375,40.375,0,0,0-1.795-11.8c-1.764-5.818-6.463-15.18-18.954-22.794A25.278,25.278,0,0,1,312.883,42.936ZM345.171,59.2c1.055-.494,2.077-.939,3.051-1.335.2-.1.379-.165.575-.247,1.286-.445,2.044-.577,2.505-.231a.887.887,0,0,1,.346.626,5.172,5.172,0,0,1,.066.659c.016.692,0,1.731,0,3.428v6.345a14.781,14.781,0,0,1-1.449,6.312,11.361,11.361,0,0,1-2,2.752c-.3.313-.542.56-.725.742l-21.985,22-.315.313c-.147.148-.28.28-.412.4-.3.313-.526.56-.725.742a.793.793,0,0,0-.115.1l-.064.066c-.348.3-.562.4-.824.363a.561.561,0,0,1-.232-.082,1.829,1.829,0,0,1-.841-.824.125.125,0,0,1-.033-.066,2.916,2.916,0,0,1-.28-.544,2,2,0,0,1-.115-.28.354.354,0,0,1-.066-.132l-.1-.264c-.033-.1-.066-.2-.1-.28v-.016a5.493,5.493,0,0,1-.183-.577,23.255,23.255,0,0,1-.542-9.955,41,41,0,0,1,1.366-6.345l-1.877-.577,1.877.56c3.412-11.24,12.856-18.377,21.179-22.662C343.836,59.846,344.513,59.516,345.171,59.2Zm20.965,29.535c.232.461.049,1.1-1.07,2.785-.379.593-.775,1.121-1.139,1.615-.13.181-.264.363-.4.527-.114.165-.247.33-.361.494-.181.231-.348.429-.511.626s-.313.379-.462.544a37.555,37.555,0,0,1-4.7,4.73,32.4,32.4,0,0,1-10.81,6.148,1.638,1.638,0,0,0-.265.082,40.815,40.815,0,0,1-8.981,1.829,22.739,22.739,0,0,1-6.593-.33c-.016,0-.033-.016-.068-.016-.132-.033-.262-.066-.412-.1-.3-.082-.659-.181-1.038-.3a8.928,8.928,0,0,1-1.912-.758.057.057,0,0,0-.033-.016,1.677,1.677,0,0,1-.939-1.137c-.081-.659.577-1.038,2.505-3.049a.485.485,0,0,1,.082-.1.559.559,0,0,1,.1-.1L339.65,91.7l.082-.082.364-.363c.081-.082.147-.148.214-.231a3.457,3.457,0,0,1,.246-.247s.132-.132.379-.363l.1-.1c.313-.3.742-.692,1.253-1.121,1.17-.972,3.593-1.17,6.79-1.2,1.106-.016,2.291-.016,3.544,0h1.337c1.5,0,2.306-.016,2.751-.033h.033c.313,0,.593.016.859,0,1.564.033,2.505,0,3.938.033h.412a26.2,26.2,0,0,1,2.738.181C365.823,88.326,366.02,88.54,366.136,88.738Zm7.779-17.075c-.163.709-.362,1.4-.559,2.093a66.059,66.059,0,0,1-2.622,7.334v.016a7.065,7.065,0,0,1-1.005,1.632,3.182,3.182,0,0,1-1.366.857,15.458,15.458,0,0,1-4.715.462c-.313,0-.575,0-1.681.016H351.187c-.3-.016-.592-.016-.921-.016-1.419-.033-2.11-.033-2.243-.379a.48.48,0,0,1,.117-.461L363.9,67.444l5.124-5.126.033-.033,3.527-3.527.412-.4c.148-.132.282-.28.429-.429,1.022-.989,1.5-1.5,1.862-1.351.346.165.3.874.313,2.752A54.9,54.9,0,0,1,373.915,71.663Zm-6.263-18.509h.148c.166-.016.33-.016.513-.016h.049c.4-.016.824-.033,1.269-.049,1.416-.033,2.124-.082,2.273.264.133.3-.18.659-.939,1.5l-.1.082L363.9,61.906v.016l-5.342,5.34c-.114.115-.247.231-.379.363-.13.148-.28.28-.429.429-1.022.989-1.5,1.5-1.846,1.352-.147-.066-.231-.231-.262-.527V60.736c-.016-2.126-.1-3.313,0-4.071a1.952,1.952,0,0,1,.476-1.154,2.483,2.483,0,0,1,1.106-.61q.668-.223,1.333-.4c.033,0,.049-.016.066-.016.923-.247,1.881-.445,2.8-.626A53.586,53.586,0,0,1,367.652,53.154Zm-52.46,57.455V97.8c.509-.049,1.037-.1,1.548-.165a20.888,20.888,0,0,0,.991,3.708,15.7,15.7,0,0,0,2.39,4.335Zm33.342,20.717a96.043,96.043,0,0,1-32.734,6.609c-.2,0-.412.016-.608.016V116.164l.608-.61,2.176-2.192,4.666-4.648.245-.264a18.8,18.8,0,0,0,10.6,3.626c.593.049,1.187.066,1.78.066a36.637,36.637,0,0,0,6.032-.544,43.568,43.568,0,0,0,6.345-1.549A37.255,37.255,0,0,0,363.35,99.962a47.337,47.337,0,0,0,4.269-5.159,66.6,66.6,0,0,0,9.18-18.74c.132-.412.249-.808.363-1.187a58.706,58.706,0,0,0,1.78-8.241,60.1,60.1,0,0,0,.546-11.949v-.066c-.068-1.17-.15-2.34-.282-3.511a2.024,2.024,0,0,0-1.778-1.764,62.894,62.894,0,0,0-24.411,2.571c-2.291.709-4.516,1.516-6.626,2.406-1.384.577-2.734,1.187-4.036,1.829-.363.165-.709.346-1.04.511-.346.181-.676.346-1,.527a29.618,29.618,0,0,0-50.518-7.4,29.057,29.057,0,0,0-4.185,7.054c-.364-.2-.743-.379-1.122-.56-.313-.165-.641-.313-.971-.478-1.319-.626-2.7-1.22-4.153-1.8-1.848-.742-3.825-1.45-5.9-2.093a62.922,62.922,0,0,0-24.409-2.571,1.884,1.884,0,0,0-.791.264,1.921,1.921,0,0,0-1,1.5c-.133,1.2-.232,2.39-.28,3.577a60.1,60.1,0,0,0,.542,11.949,58.77,58.77,0,0,0,1.8,8.241c.114.379.229.791.379,1.22A66.062,66.062,0,0,0,258.84,94.8a47.531,47.531,0,0,0,4.269,5.159h.016v.016a37.246,37.246,0,0,0,15.707,10.07A41.87,41.87,0,0,0,285.2,111.6a34.656,34.656,0,0,0,6,.544c.595,0,1.187-.016,1.782-.066a18.749,18.749,0,0,0,10.6-3.626l7.7,7.7v21.805c-.213,0-.412-.016-.625-.016a95.958,95.958,0,0,1-32.718-6.609,97.52,97.52,0,0,1-42.191-31.991A96.971,96.971,0,0,1,221.559,8.7c.991-2.851,2.128-5.653,3.38-8.389A97.6,97.6,0,0,1,235.668-17.6q2.717-3.585,5.736-6.889a97,97,0,0,1,144.378.808,95.669,95.669,0,0,1,7.88,10.1,97.174,97.174,0,0,1-45.127,144.907Z" transform="translate(-212.131 60.256)" fill="#fef1ef"/><path d="M328.085,6.448a1.941,1.941,0,0,1-1.943,1.943,2.07,2.07,0,0,1-1.806-1.231L319.49-5.14h-5.716A1.956,1.956,0,0,1,311.8-7.083a1.948,1.948,0,0,1,1.95-1.945h4.209L313.486-20.4,302.644,7.16a2.069,2.069,0,0,1-1.813,1.231,1.946,1.946,0,0,1-1.943-1.943,2.107,2.107,0,0,1,.137-.712l12.655-32.162a2.068,2.068,0,0,1,1.806-1.233,2.071,2.071,0,0,1,1.815,1.233L327.957,5.736A2.32,2.32,0,0,1,328.085,6.448Z" transform="translate(-155.898 81.384)" fill="#fef1ef"/><path d="M302.855,6.426a1.953,1.953,0,0,1-1.91,1.943H288.659a1.946,1.946,0,0,1-1.943-1.943V-25.682a1.946,1.946,0,0,1,1.943-1.943h12.279a1.947,1.947,0,0,1,1.945,1.943,1.946,1.946,0,0,1-1.945,1.937H290.6V-11.33h4.2a1.943,1.943,0,0,1,1.943,1.945A1.946,1.946,0,0,1,294.8-7.442h-4.2V4.481h10.336A1.956,1.956,0,0,1,302.855,6.426Z" transform="translate(-163.787 81.406)" fill="#fef1ef"/><path d="M294.492-25.624a1.946,1.946,0,0,1-1.943,1.943H283.39V6.293a1.943,1.943,0,0,1-3.886,0V-23.681h-9.159a1.946,1.946,0,0,1-1.943-1.943,1.941,1.941,0,0,1,1.943-1.943h22.2A1.941,1.941,0,0,1,294.492-25.624Z" transform="translate(-175.658 81.444)" fill="#fef1ef"/><path d="M267.152.406a15.852,15.852,0,0,0,2.027-1.632,17.76,17.76,0,0,0,4.532-10.911v-.082a17.988,17.988,0,0,0-3.774-10.037,9.186,9.186,0,0,0-.758-.857,14.76,14.76,0,0,0-4.1-2.752,16.622,16.622,0,0,0-6.84-1.78,1.948,1.948,0,0,0-1.945,1.945V6.455a1.946,1.946,0,1,0,3.891,0V4.361l8.6,3.873a2.308,2.308,0,0,0,.808.181,1.952,1.952,0,0,0,1.945-1.961A2.066,2.066,0,0,0,270.4,4.691l-5.983-2.7a1.435,1.435,0,0,0,.231-.115A20.507,20.507,0,0,0,267.152.406Zm-6.97-23.981a11.451,11.451,0,0,1,4.516,1.813,11.326,11.326,0,0,1,3.807,4.269,11.4,11.4,0,0,1,1.3,5.324A11.547,11.547,0,0,1,265.522-3.2a11.523,11.523,0,0,1-5.34,2.439Z" transform="translate(-183.508 81.393)" fill="#fef1ef"/><path d="M265.142-16.6a15.458,15.458,0,0,0-.991-1.928,20.233,20.233,0,0,0-9.131-7.7,16.846,16.846,0,0,0-5.586-1.434c-.331-.016-.659-.033-.991-.033A18.134,18.134,0,0,0,230.331-9.583,18.24,18.24,0,0,0,231.485-3.2a17.814,17.814,0,0,0,2.917,5.06,18.113,18.113,0,0,0,14.042,6.675A18.085,18.085,0,0,0,264.151-.584a17.958,17.958,0,0,0,2.406-9v-.033A21.123,21.123,0,0,0,265.142-16.6ZM248.51,4.559A14.042,14.042,0,0,1,238.984.85a13.878,13.878,0,0,1-3.3-4.483,14.1,14.1,0,0,1-1.318-5.95A14.159,14.159,0,0,1,248.51-23.724a12.624,12.624,0,0,1,1.782.115,13.8,13.8,0,0,1,5.223,1.747,14.138,14.138,0,0,1,7.138,12.279A14.161,14.161,0,0,1,248.51,4.559Z" transform="translate(-200.334 81.36)" fill="#fef1ef"/></g></g></svg>